# xmcd
#
# Track frame offsets:
#	150
#	22077
#	41788
#	59673
#	82215
#	99440
#	118851
#	140890
#	163926
#	179082
#	192242
#	209443
#	232898
# Disc length: 3438 seconds
# Revision: 11
# Processed by: cddbd v1.5.1PL2 Copyright (c) Steve Scherf et al.
#
# Submitted via: libkcddb 0.31
#
DISCID=cd0d6c0d
DTITLE=Big and Rich - Horse Of A Different Color
DYEAR=2004
DGENRE=Country
TTITLE0=Rollin' (Ballad of Big and Rich)
TTITLE1=Wild West Show
TTITLE2=Big Time
TTITLE3=Kick My Ass
TTITLE4=Six Foot Town
TTITLE5=Holy Water
TTITLE6=Saved
TTITLE7=Real World
TTITLE8=Save a Horse (Ride a Cowboy)
TTITLE9=Drinkin' 'Bout You
TTITLE10=Love Train
TTITLE11=Deadwood Mountain
TTITLE12=Live This Life
EXTD=
EXTT0=
EXTT1=
EXTT2=
EXTT3=
EXTT4=
EXTT5=
EXTT6=
EXTT7=
EXTT8=
EXTT9=
EXTT10=
EXTT11=
EXTT12=
PLAYORDER=
